<svg width="84" height="85" viewBox="0 0 84 85" fill="none" xmlns="http://www.w3.org/2000/svg">
<path d="M82.5576 65.4275L72.0985 54.9684L80.8146 46.2529C82.0819 44.9855 82.5617 43.1302 82.0674 41.4071C81.5732 39.6845 80.1831 38.3656 78.4365 37.962L33.1138 27.5028C31.4578 27.1218 29.7212 27.6185 28.5184 28.8208C27.3166 30.0231 26.8184 31.7592 27.2005 33.4162L37.6606 78.7384C38.0637 80.4845 39.3827 81.8751 41.1057 82.3693C42.8293 82.863 44.6836 82.3833 45.9515 81.1164L54.667 72.4004L65.1261 82.8595C66.089 83.8225 67.3509 84.3037 68.6123 84.3037C69.8737 84.3037 71.1361 83.8225 72.0985 82.8595L82.5576 72.4004C84.4825 70.475 84.4825 67.3534 82.5576 65.4275ZM68.6123 72.4004L58.1532 61.9413C57.1903 60.9784 55.9284 60.4971 54.667 60.4971C53.4056 60.4971 52.1432 60.9784 51.1808 61.9413L45.2689 67.8536L38.584 38.8858L67.5517 45.5703L61.6394 51.4822C59.714 53.4075 59.714 56.5297 61.6394 58.4551L72.0985 68.9142L68.6123 72.4004Z" fill="white"/>
<path d="M21.8961 15.225L16.9658 10.2946C15.0404 8.36924 11.9182 8.36924 9.99286 10.2946C8.06748 12.22 8.06748 15.3417 9.99286 17.2675L14.9237 22.1979C15.8867 23.1608 17.1486 23.6421 18.4099 23.6421C19.6713 23.6421 20.9337 23.1608 21.8961 22.1979C23.8215 20.273 23.8215 17.1509 21.8961 15.225Z" fill="white"/>
<path d="M12.2836 28.572H5.31123C2.58816 28.572 0.380859 30.7793 0.380859 33.5024C0.380859 36.2255 2.58816 38.4328 5.31123 38.4328H12.2836C15.0067 38.4328 17.214 36.2255 17.214 33.5024C17.214 30.7793 15.0067 28.572 12.2836 28.572Z" fill="white"/>
<path d="M21.8976 44.8056C19.9727 42.8802 16.8511 42.8802 14.9252 44.8056L9.99481 49.736C8.06944 51.6614 8.06944 54.7835 9.99481 56.7089C10.9578 57.6718 12.2196 58.153 13.481 58.153C14.7424 58.153 16.0048 57.6718 16.9672 56.7089L21.8976 51.7785C23.823 49.8536 23.823 46.7315 21.8976 44.8056Z" fill="white"/>
<path d="M56.4098 10.2946C54.4844 8.36924 51.3628 8.36924 49.4369 10.2946L44.5065 15.225C42.5812 17.1504 42.5812 20.2725 44.5065 22.1979C45.4695 23.1608 46.7314 23.6421 47.9932 23.6421C49.2551 23.6421 50.517 23.1608 51.4795 22.1979L56.4098 17.2675C58.3352 15.3427 58.3352 12.2205 56.4098 10.2946Z" fill="white"/>
<path d="M33.2028 0.680176C30.4798 0.680176 28.2725 2.88747 28.2725 5.61054V12.583C28.2725 15.306 30.4798 17.5133 33.2028 17.5133C35.9259 17.5133 38.1332 15.306 38.1332 12.583V5.61054C38.1332 2.88747 35.9259 0.680176 33.2028 0.680176Z" fill="white"/>
</svg>
